<svg width="292" height="100" viewBox="0 0 292 100" fill="none" xmlns="http://www.w3.org/2000/svg">
<g clip-path="url(#clip0_5202_77)">
<ellipse cx="34.4" cy="36" rx="10.4" ry="10.4959" fill="#FFA500"/>
<ellipse opacity="0.6" cx="7.06439" cy="6.10078" rx="7.06439" ry="6.10078" transform="matrix(0.834795 -0.550561 0.54352 0.839396 20.9729 30.4007)" fill="url(#paint0_radial_5202_77)"/>
<path d="M38.9211 26.7129C37.0945 28.0225 36.4305 30.0479 37.1 31C37.7695 31.9522 39.2733 33.3096 41.1 32C42.5716 30.945 41.5545 29.6952 44.3793 25.6163C44.3793 25.6163 44.1319 25.5859 44.0095 25.5705C42.6045 25.3927 40.6014 25.5083 38.9211 26.7129Z" fill="#008000"/>
</g>
<path d="M154.095 43V31.5006H156.325L156.544 33.031H156.697C156.945 32.6812 157.229 32.3751 157.55 32.1128C157.87 31.8358 158.235 31.6245 158.643 31.4788C159.065 31.3184 159.525 31.2383 160.02 31.2383C160.691 31.2383 161.288 31.3767 161.813 31.6537C162.337 31.9306 162.746 32.3897 163.037 33.031H163.19C163.438 32.6812 163.729 32.3751 164.065 32.1128C164.4 31.8358 164.786 31.6245 165.223 31.4788C165.66 31.3184 166.134 31.2383 166.644 31.2383C167.329 31.2383 167.934 31.3622 168.459 31.6099C168.983 31.8577 169.399 32.2658 169.705 32.8342C170.011 33.4026 170.164 34.1605 170.164 35.1078V43H167.497V35.6544C167.497 35.2609 167.453 34.933 167.366 34.6706C167.278 34.3937 167.154 34.1824 166.994 34.0366C166.848 33.8763 166.659 33.7597 166.426 33.6868C166.207 33.6139 165.967 33.5775 165.704 33.5775C165.282 33.5775 164.903 33.6941 164.567 33.9273C164.232 34.1605 163.963 34.4811 163.758 34.8892C163.569 35.2973 163.474 35.771 163.474 36.3103V43H160.807V35.6544C160.807 35.2609 160.763 34.933 160.676 34.6706C160.588 34.3937 160.465 34.1824 160.304 34.0366C160.159 33.8763 159.969 33.7597 159.736 33.6868C159.517 33.6139 159.277 33.5775 159.014 33.5775C158.592 33.5775 158.206 33.6941 157.856 33.9273C157.521 34.1605 157.251 34.4811 157.047 34.8892C156.857 35.2973 156.763 35.771 156.763 36.3103V43H154.095Z" fill="#131313"/>
<path d="M146.858 43V31.5006H149.088L149.307 33.3152H149.46C149.605 32.9508 149.78 32.6156 149.984 32.3095C150.203 31.9889 150.48 31.7338 150.815 31.5443C151.15 31.3403 151.558 31.2383 152.039 31.2383C152.272 31.2383 152.484 31.2601 152.673 31.3039C152.877 31.3476 153.03 31.3913 153.132 31.435V33.9492H152.323C151.872 33.9492 151.471 34.0147 151.121 34.1459C150.771 34.2625 150.472 34.452 150.225 34.7143C149.992 34.9767 149.817 35.3046 149.7 35.6981C149.583 36.0916 149.525 36.5507 149.525 37.0754V43H146.858Z" fill="#131313"/>
<path d="M138.345 43.2624C138.024 43.2624 137.652 43.2186 137.23 43.1312C136.822 43.0583 136.421 42.9126 136.027 42.6939C135.648 42.4753 135.335 42.1547 135.087 41.732C134.839 41.2948 134.716 40.7264 134.716 40.0268C134.716 39.2398 134.89 38.5912 135.24 38.0811C135.59 37.5564 136.078 37.1483 136.705 36.8568C137.346 36.5507 138.104 36.3394 138.979 36.2228C139.868 36.0916 140.837 36.026 141.886 36.026V35.086C141.886 34.7508 141.835 34.452 141.733 34.1896C141.631 33.9273 141.442 33.7233 141.165 33.5775C140.903 33.4172 140.502 33.337 139.962 33.337C139.423 33.337 139.001 33.4026 138.694 33.5338C138.388 33.665 138.177 33.8253 138.06 34.0147C137.944 34.2042 137.886 34.401 137.886 34.605V34.9111H135.306C135.291 34.8382 135.284 34.7653 135.284 34.6925C135.284 34.6196 135.284 34.5321 135.284 34.4301C135.284 33.7743 135.481 33.2059 135.874 32.7249C136.268 32.2439 136.814 31.8796 137.514 31.6318C138.213 31.3695 139.022 31.2383 139.941 31.2383C140.99 31.2383 141.85 31.384 142.52 31.6755C143.205 31.967 143.715 32.3824 144.051 32.9217C144.386 33.4609 144.553 34.1168 144.553 34.8892V40.311C144.553 40.5879 144.634 40.7847 144.794 40.9013C144.954 41.0179 145.129 41.0762 145.319 41.0762H146.018V42.9126C145.872 42.9709 145.661 43.0364 145.384 43.1093C145.107 43.1968 144.765 43.2405 144.357 43.2405C143.978 43.2405 143.635 43.1749 143.329 43.0437C143.038 42.9271 142.79 42.7522 142.586 42.519C142.382 42.2859 142.236 42.0089 142.149 41.6883H142.017C141.77 41.9944 141.471 42.2713 141.121 42.519C140.786 42.7522 140.385 42.9344 139.919 43.0656C139.467 43.1968 138.942 43.2624 138.345 43.2624ZM139.154 41.0762C139.591 41.0762 139.977 41.0106 140.312 40.8794C140.662 40.7482 140.946 40.566 141.165 40.3329C141.398 40.0997 141.573 39.8155 141.69 39.4802C141.821 39.145 141.886 38.7807 141.886 38.3871V37.8625C141.085 37.8625 140.341 37.9135 139.656 38.0155C138.986 38.1175 138.447 38.307 138.039 38.5839C137.645 38.8608 137.448 39.2543 137.448 39.7644C137.448 40.0268 137.507 40.26 137.623 40.464C137.754 40.6535 137.944 40.8065 138.192 40.9231C138.454 41.0251 138.775 41.0762 139.154 41.0762Z" fill="#131313"/>
<path d="M123.657 43V28.0027H134.435V30.4294H126.499V34.452H133.648V36.8786H126.499V43H123.657Z" fill="#131313"/>
<path d="M116.786 43.2624C115.561 43.2624 114.541 43.051 113.725 42.6284C112.909 42.1911 112.297 41.528 111.888 40.6389C111.48 39.7499 111.276 38.6203 111.276 37.2503C111.276 35.8657 111.48 34.7362 111.888 33.8617C112.297 32.9727 112.909 32.3168 113.725 31.8941C114.541 31.4569 115.561 31.2383 116.786 31.2383C117.893 31.2383 118.819 31.4496 119.562 31.8723C120.32 32.2804 120.888 32.9144 121.267 33.7743C121.646 34.6342 121.836 35.7491 121.836 37.1191V37.9062H114.009C114.038 38.6203 114.148 39.2252 114.337 39.7207C114.526 40.2017 114.818 40.566 115.211 40.8138C115.62 41.047 116.152 41.1636 116.807 41.1636C117.143 41.1636 117.456 41.1199 117.747 41.0324C118.039 40.945 118.294 40.8138 118.513 40.6389C118.731 40.4494 118.899 40.2163 119.015 39.9393C119.147 39.6624 119.212 39.3418 119.212 38.9774H121.836C121.836 39.7061 121.704 40.3401 121.442 40.8794C121.194 41.4187 120.837 41.8632 120.371 42.213C119.919 42.5628 119.387 42.8251 118.775 43C118.163 43.1749 117.5 43.2624 116.786 43.2624ZM114.053 36.026H119.059C119.059 35.5451 119.001 35.137 118.884 34.8018C118.782 34.4666 118.629 34.1896 118.425 33.971C118.236 33.7524 118.002 33.5994 117.726 33.5119C117.449 33.4099 117.135 33.3589 116.786 33.3589C116.217 33.3589 115.736 33.4536 115.343 33.6431C114.964 33.8326 114.672 34.1241 114.468 34.5176C114.264 34.9111 114.126 35.4139 114.053 36.026Z" fill="#131313"/>
<path d="M101.513 46.9789C101.003 46.9789 100.522 46.8769 100.071 46.6728C99.6187 46.4688 99.2543 46.1627 98.9774 45.7546C98.7005 45.3611 98.562 44.8728 98.562 44.2899C98.562 43.6486 98.7442 43.1458 99.1086 42.7814C99.4875 42.4024 99.9029 42.1182 100.355 41.9288C100.02 41.7539 99.7426 41.5207 99.524 41.2292C99.3199 40.9377 99.2179 40.5879 99.2179 40.1798C99.2179 39.626 99.4219 39.1887 99.83 38.8681C100.238 38.5329 100.705 38.3143 101.229 38.2122C100.69 37.877 100.275 37.4471 99.9831 36.9224C99.7061 36.3977 99.5677 35.8001 99.5677 35.1297C99.5677 34.3281 99.7572 33.6431 100.136 33.0747C100.53 32.4917 101.098 32.0399 101.841 31.7192C102.585 31.3986 103.481 31.2383 104.53 31.2383C104.953 31.2383 105.361 31.2674 105.755 31.3257C106.148 31.384 106.505 31.4715 106.826 31.5881C107.336 31.282 107.686 30.9395 107.875 30.5606C108.065 30.167 108.167 29.8464 108.181 29.5986H110.783C110.783 30.1087 110.681 30.5606 110.477 30.9541C110.287 31.3476 110.018 31.6755 109.668 31.9379C109.318 32.1856 108.895 32.3678 108.4 32.4844C108.764 32.8051 109.041 33.1913 109.231 33.6431C109.42 34.0949 109.515 34.5904 109.515 35.1297C109.515 35.9313 109.325 36.6236 108.946 37.2066C108.582 37.7896 108.036 38.2414 107.307 38.562C106.593 38.8827 105.711 39.043 104.662 39.043H102.891C102.585 39.043 102.344 39.1086 102.169 39.2398C102.009 39.3709 101.929 39.5531 101.929 39.7863C101.929 39.9758 102.002 40.1434 102.147 40.2891C102.308 40.4349 102.526 40.5077 102.803 40.5077H107.832C108.691 40.5077 109.398 40.7919 109.952 41.3604C110.521 41.9142 110.805 42.6284 110.805 43.5028C110.805 44.1587 110.63 44.749 110.28 45.2736C109.945 45.7983 109.471 46.2137 108.859 46.5198C108.247 46.8258 107.533 46.9789 106.717 46.9789H101.513ZM102.475 45.055H106.695C106.972 45.055 107.212 45.004 107.416 44.902C107.635 44.8145 107.802 44.6834 107.919 44.5085C108.05 44.3336 108.116 44.1368 108.116 43.9182C108.116 43.5393 107.992 43.2551 107.744 43.0656C107.511 42.8761 107.219 42.7814 106.87 42.7814H102.475C102.126 42.7814 101.834 42.8834 101.601 43.0875C101.368 43.3061 101.251 43.583 101.251 43.9182C101.251 44.2534 101.36 44.5231 101.579 44.7271C101.812 44.9457 102.111 45.055 102.475 45.055ZM104.552 37.1629C105.325 37.1629 105.9 36.988 106.279 36.6382C106.673 36.2738 106.87 35.771 106.87 35.1297C106.87 34.4884 106.673 33.9929 106.279 33.6431C105.9 33.2933 105.325 33.1184 104.552 33.1184C103.78 33.1184 103.197 33.2933 102.803 33.6431C102.424 33.9929 102.235 34.4884 102.235 35.1297C102.235 35.5524 102.315 35.9167 102.475 36.2228C102.65 36.5289 102.905 36.7621 103.24 36.9224C103.59 37.0827 104.028 37.1629 104.552 37.1629Z" fill="#131313"/>
<path d="M87.5276 43V31.5006H89.7575L89.9761 33.031H90.1292C90.3915 32.6812 90.6976 32.3751 91.0474 32.1128C91.4117 31.8358 91.8198 31.6245 92.2716 31.4788C92.738 31.3184 93.2481 31.2383 93.802 31.2383C94.5307 31.2383 95.172 31.3695 95.7258 31.6318C96.2942 31.8941 96.7388 32.3168 97.0594 32.8998C97.38 33.4828 97.5404 34.2625 97.5404 35.239V43H94.8513V35.72C94.8513 35.3119 94.8003 34.9767 94.6983 34.7143C94.6109 34.4374 94.4724 34.2188 94.2829 34.0585C94.108 33.8836 93.8894 33.7597 93.6271 33.6868C93.3647 33.6139 93.0732 33.5775 92.7526 33.5775C92.2716 33.5775 91.8344 33.6941 91.4409 33.9273C91.0619 34.1605 90.7559 34.4811 90.5227 34.8892C90.3041 35.2973 90.1947 35.771 90.1947 36.3103V43H87.5276Z" fill="#131313"/>
<path d="M79.0142 43.2624C78.6936 43.2624 78.3219 43.2186 77.8993 43.1312C77.4912 43.0583 77.0904 42.9126 76.6968 42.6939C76.3179 42.4753 76.0046 42.1547 75.7568 41.732C75.509 41.2948 75.3851 40.7264 75.3851 40.0268C75.3851 39.2398 75.56 38.5912 75.9098 38.0811C76.2596 37.5564 76.7479 37.1483 77.3746 36.8568C78.0159 36.5507 78.7737 36.3394 79.6482 36.2228C80.5373 36.0916 81.5065 36.026 82.5558 36.026V35.086C82.5558 34.7508 82.5048 34.452 82.4028 34.1896C82.3008 33.9273 82.1113 33.7233 81.8344 33.5775C81.5721 33.4172 81.1713 33.337 80.632 33.337C80.0927 33.337 79.6701 33.4026 79.364 33.5338C79.0579 33.665 78.8466 33.8253 78.73 34.0147C78.6134 34.2042 78.5551 34.401 78.5551 34.605V34.9111H75.9754C75.9608 34.8382 75.9535 34.7653 75.9535 34.6925C75.9535 34.6196 75.9535 34.5321 75.9535 34.4301C75.9535 33.7743 76.1503 33.2059 76.5438 32.7249C76.9373 32.2439 77.4839 31.8796 78.1835 31.6318C78.883 31.3695 79.6919 31.2383 80.6101 31.2383C81.6595 31.2383 82.5194 31.384 83.1898 31.6755C83.8749 31.967 84.385 32.3824 84.7202 32.9217C85.0554 33.4609 85.223 34.1168 85.223 34.8892V40.311C85.223 40.5879 85.3032 40.7847 85.4635 40.9013C85.6238 41.0179 85.7987 41.0762 85.9882 41.0762H86.6878V42.9126C86.542 42.9709 86.3307 43.0364 86.0538 43.1093C85.7768 43.1968 85.4343 43.2405 85.0262 43.2405C84.6473 43.2405 84.3048 43.1749 83.9987 43.0437C83.7072 42.9271 83.4595 42.7522 83.2554 42.519C83.0514 42.2859 82.9056 42.0089 82.8182 41.6883H82.687C82.4393 41.9944 82.1405 42.2713 81.7907 42.519C81.4555 42.7522 81.0547 42.9344 80.5883 43.0656C80.1365 43.1968 79.6118 43.2624 79.0142 43.2624ZM79.8231 41.0762C80.2603 41.0762 80.6466 41.0106 80.9818 40.8794C81.3316 40.7482 81.6158 40.566 81.8344 40.3329C82.0676 40.0997 82.2425 39.8155 82.3591 39.4802C82.4903 39.145 82.5558 38.7807 82.5558 38.3871V37.8625C81.7542 37.8625 81.0109 37.9135 80.3259 38.0155C79.6555 38.1175 79.1162 38.307 78.7081 38.5839C78.3146 38.8608 78.1179 39.2543 78.1179 39.7644C78.1179 40.0268 78.1762 40.26 78.2928 40.464C78.4239 40.6535 78.6134 40.8065 78.8612 40.9231C79.1235 41.0251 79.4442 41.0762 79.8231 41.0762Z" fill="#131313"/>
<path d="M69.0388 43V31.5006H71.2688L71.4874 33.3152H71.6404C71.7862 32.9508 71.9611 32.6156 72.1651 32.3095C72.3837 31.9889 72.6606 31.7338 72.9959 31.5443C73.3311 31.3403 73.7392 31.2383 74.2201 31.2383C74.4533 31.2383 74.6647 31.2601 74.8541 31.3039C75.0582 31.3476 75.2112 31.3913 75.3132 31.435V33.9492H74.5043C74.0525 33.9492 73.6517 34.0147 73.3019 34.1459C72.9521 34.2625 72.6534 34.452 72.4056 34.7143C72.1724 34.9767 71.9975 35.3046 71.8809 35.6981C71.7643 36.0916 71.706 36.5507 71.706 37.0754V43H69.0388Z" fill="#131313"/>
<path d="M59.748 43.2623C58.1886 43.2623 56.8404 42.9854 55.7036 42.4316C54.5668 41.8632 53.6923 41.0033 53.0801 39.8519C52.4826 38.7005 52.1838 37.2503 52.1838 35.5013C52.1838 33.7378 52.4826 32.2876 53.0801 31.1508C53.6923 29.9994 54.5668 29.1468 55.7036 28.593C56.8404 28.0246 58.1886 27.7404 59.748 27.7404C61.3221 27.7404 62.6703 28.0246 63.7925 28.593C64.9293 29.1468 65.7965 29.9994 66.3941 31.1508C67.0062 32.2876 67.3123 33.7378 67.3123 35.5013C67.3123 37.2503 67.0062 38.7005 66.3941 39.8519C65.7965 41.0033 64.9293 41.8632 63.7925 42.4316C62.6703 42.9854 61.3221 43.2623 59.748 43.2623ZM59.748 40.8575C60.5059 40.8575 61.1691 40.7482 61.7375 40.5296C62.3205 40.311 62.8087 39.9903 63.2022 39.5677C63.5957 39.1304 63.8945 38.5985 64.0986 37.9717C64.3026 37.3305 64.4046 36.5944 64.4046 35.7637V35.2827C64.4046 34.4374 64.3026 33.6941 64.0986 33.0528C63.8945 32.4115 63.5957 31.8796 63.2022 31.4569C62.8087 31.0196 62.3205 30.6917 61.7375 30.4731C61.1691 30.2545 60.5059 30.1452 59.748 30.1452C58.9902 30.1452 58.3197 30.2545 57.7367 30.4731C57.1683 30.6917 56.6874 31.0196 56.2939 31.4569C55.9003 31.8796 55.6016 32.4115 55.3975 33.0528C55.208 33.6941 55.1133 34.4374 55.1133 35.2827V35.7637C55.1133 36.5944 55.208 37.3305 55.3975 37.9717C55.6016 38.5985 55.9003 39.1304 56.2939 39.5677C56.6874 39.9903 57.1683 40.311 57.7367 40.5296C58.3197 40.7482 58.9902 40.8575 59.748 40.8575Z" fill="#131313"/>
<rect x="268" y="683" width="24" height="24" rx="8" fill="#F7F6F3"/>
<rect x="286" y="689" width="12" height="12" rx="4" transform="rotate(90 286 689)" fill="#F7F6F3"/>
<path d="M281.5 692L278.5 695L281.5 698" stroke="#454545" stroke-width="1.25" stroke-linecap="round" stroke-linejoin="round"/>
<defs>
<radialGradient id="paint0_radial_5202_77" cx="0" cy="0" r="1" gradientUnits="userSpaceOnUse" gradientTransform="translate(7.06439 6.10078) rotate(90) scale(6.10078 7.06439)">
<stop stop-color="white"/>
<stop offset="1" stop-color="white" stop-opacity="0"/>
</radialGradient>
<clipPath id="clip0_5202_77">
<rect width="20.8" height="20.9919" fill="white" transform="translate(24 25.5041)"/>
</clipPath>
</defs>
</svg>
